<svg id="visual" viewBox="0 0 960 300" width="960" height="300" xmlns="http://www.w3.org/2000/svg" xmlns:xlink="http://www.w3.org/1999/xlink" version="1.1"><path d="M0 182L137 175L274 177L411 192L549 177L686 189L823 184L960 223L960 301L823 301L686 301L549 301L411 301L274 301L137 301L0 301Z" fill="#575669"></path><path d="M0 215L137 228L274 228L411 233L549 217L686 198L823 226L960 207L960 301L823 301L686 301L549 301L411 301L274 301L137 301L0 301Z" fill="#7c5582"></path><path d="M0 254L137 250L274 228L411 236L549 219L686 224L823 237L960 240L960 301L823 301L686 301L549 301L411 301L274 301L137 301L0 301Z" fill="#b3487d"></path><path d="M0 242L137 257L274 262L411 266L549 244L686 264L823 245L960 251L960 301L823 301L686 301L549 301L411 301L274 301L137 301L0 301Z" fill="#e03a57"></path><path d="M0 262L137 268L274 279L411 284L549 273L686 269L823 262L960 266L960 301L823 301L686 301L549 301L411 301L274 301L137 301L0 301Z" fill="#ee5007"></path></svg>